<svg width="18" height="19" viewBox="0 0 18 19" fill="none" xmlns="http://www.w3.org/2000/svg">
<path fill-rule="evenodd" clip-rule="evenodd" d="M13.5625 12.95C13.1149 12.95 12.6857 12.7722 12.3693 12.4557C12.0528 12.1392 11.875 11.71 11.875 11.2625C11.875 10.8149 12.0528 10.3857 12.3693 10.0692C12.6857 9.75274 13.1149 9.57495 13.5625 9.57495C14.0101 9.57495 14.4393 9.75274 14.7557 10.0692C15.0722 10.3857 15.25 10.8149 15.25 11.2625C15.25 11.71 15.0722 12.1392 14.7557 12.4557C14.4393 12.7722 14.0101 12.95 13.5625 12.95ZM13.5625 13.7C12.916 13.7 12.296 13.4431 11.8389 12.986C11.3818 12.5289 11.125 11.9089 11.125 11.2625C11.125 10.616 11.3818 9.996 11.8389 9.53888C12.296 9.08176 12.916 8.82495 13.5625 8.82495C14.209 8.82495 14.829 9.08176 15.2861 9.53888C15.7432 9.996 16 10.616 16 11.2625C16 11.9089 15.7432 12.5289 15.2861 12.986C14.829 13.4431 14.209 13.7 13.5625 13.7Z" fill="#F8F8F8"/>
<path fill-rule="evenodd" clip-rule="evenodd" d="M10.3401 3.41745C10.3101 3.35253 10.2621 3.29756 10.2018 3.25902C10.1416 3.22049 10.0715 3.19999 10 3.19995H8.125V3.94995H9.76038L13.2224 11.42C13.266 11.5071 13.3419 11.5738 13.4339 11.6059C13.5259 11.6381 13.6268 11.6332 13.7152 11.5922C13.8036 11.5513 13.8727 11.4775 13.9076 11.3866C13.9426 11.2956 13.9408 11.1946 13.9026 11.105L10.3401 3.41745ZM3.4375 12.95C2.98995 12.95 2.56072 12.7722 2.24426 12.4557C1.92779 12.1392 1.75 11.71 1.75 11.2625C1.75 10.8149 1.92779 10.3857 2.24426 10.0692C2.56072 9.75274 2.98995 9.57495 3.4375 9.57495C3.88505 9.57495 4.31427 9.75274 4.63074 10.0692C4.94721 10.3857 5.125 10.8149 5.125 11.2625C5.125 11.71 4.94721 12.1392 4.63074 12.4557C4.31427 12.7722 3.88505 12.95 3.4375 12.95ZM3.4375 13.7C2.79103 13.7 2.17105 13.4431 1.71393 12.986C1.25681 12.5289 1 11.9089 1 11.2625C1 10.616 1.25681 9.996 1.71393 9.53888C2.17105 9.08176 2.79103 8.82495 3.4375 8.82495C4.08397 8.82495 4.70395 9.08176 5.16107 9.53888C5.61819 9.996 5.875 10.616 5.875 11.2625C5.875 11.9089 5.61819 12.5289 5.16107 12.986C4.70395 13.4431 4.08397 13.7 3.4375 13.7Z" fill="#F8F8F8"/>
<path fill-rule="evenodd" clip-rule="evenodd" d="M7.5625 11.2625C7.5625 11.3619 7.52299 11.4573 7.45267 11.5276C7.38234 11.5979 7.28696 11.6375 7.1875 11.6375H3.4375C3.33804 11.6375 3.24266 11.5979 3.17234 11.5276C3.10201 11.4573 3.0625 11.3619 3.0625 11.2625C3.0625 11.163 3.10201 11.0676 3.17234 10.9973C3.24266 10.927 3.33804 10.8875 3.4375 10.8875H7.1875C7.28696 10.8875 7.38234 10.927 7.45267 10.9973C7.52299 11.0676 7.5625 11.163 7.5625 11.2625ZM11.125 5.44995H8.11862C7.75085 5.44988 7.38553 5.50992 7.03713 5.6277L5.37962 6.18833C5.32424 6.20708 5.274 6.23853 5.23294 6.28016C5.19187 6.32179 5.16111 6.37245 5.14311 6.42809C5.12511 6.48373 5.12037 6.5428 5.12927 6.6006C5.13817 6.65839 5.16047 6.71331 5.19438 6.76095L6.81962 9.04245C6.85428 9.09112 6.90006 9.13081 6.95316 9.15821C7.00625 9.1856 7.06513 9.19991 7.12488 9.19995H10.1875C10.2793 9.19988 10.3679 9.16612 10.4365 9.10508L12.124 7.60508L11.626 7.04483L10.045 8.44995H7.31838L6.09812 6.73733L7.2775 6.33833C7.54846 6.24668 7.83258 6.19994 8.11862 6.19995H11.125V5.44995Z" fill="#F8F8F8"/>
<path fill-rule="evenodd" clip-rule="evenodd" d="M1.75 6.94995H5.53113V6.19995H1.375C1.27554 6.19995 1.18016 6.23946 1.10984 6.30979C1.03951 6.38011 1 6.4755 1 6.57495V7.88745C0.99997 7.98024 1.03434 8.06975 1.09647 8.13866C1.1586 8.20758 1.24408 8.25102 1.33637 8.26058L6.77387 8.82308L6.85113 8.07683L1.75 7.5492V6.94995ZM10.375 8.44995H7.75C7.45163 8.44995 7.16548 8.56848 6.9545 8.77946C6.74353 8.99043 6.625 9.27658 6.625 9.57495V10.7C6.625 10.9983 6.74353 11.2845 6.9545 11.4954C7.16548 11.7064 7.45163 11.825 7.75 11.825H9.25C9.54837 11.825 9.83452 11.7064 10.0455 11.4954C10.2565 11.2845 10.375 10.9983 10.375 10.7V8.44995ZM9.625 9.19995V10.7C9.625 10.7994 9.58549 10.8948 9.51517 10.9651C9.44484 11.0354 9.34946 11.075 9.25 11.075H7.75C7.65054 11.075 7.55516 11.0354 7.48483 10.9651C7.41451 10.8948 7.375 10.7994 7.375 10.7V9.57495C7.375 9.47549 7.41451 9.38011 7.48483 9.30979C7.55516 9.23946 7.65054 9.19995 7.75 9.19995H9.625ZM13.1417 4.82783C13.1065 4.78761 13.0631 4.7554 13.0144 4.73335C12.9657 4.71129 12.9128 4.69991 12.8594 4.69995H10.375V5.44995H12.6891L13.6735 6.57495H11.5V7.32495H14.5C14.5721 7.32501 14.6427 7.30429 14.7033 7.26527C14.7639 7.22625 14.812 7.17059 14.8418 7.10494C14.8716 7.0393 14.8818 6.96645 14.8713 6.89513C14.8608 6.82382 14.8299 6.75705 14.7824 6.70283L13.1417 4.82783Z" fill="#F8F8F8"/>
</svg>
