<svg width="18" height="16" viewBox="0 0 18 16" fill="none" xmlns="http://www.w3.org/2000/svg">
<path d="M3.75 14.475C3.05381 14.475 2.38613 14.1984 1.89384 13.7062C1.40156 13.2139 1.125 12.5462 1.125 11.85C1.125 11.1538 1.40156 10.4861 1.89384 9.99384C2.38613 9.50156 3.05381 9.225 3.75 9.225C4.44619 9.225 5.11387 9.50156 5.60616 9.99384C6.09844 10.4861 6.375 11.1538 6.375 11.85C6.375 12.5462 6.09844 13.2139 5.60616 13.7062C5.11387 14.1984 4.44619 14.475 3.75 14.475ZM3.75 8.1C2.75544 8.1 1.80161 8.49509 1.09835 9.19835C0.395088 9.90161 0 10.8554 0 11.85C0 12.8446 0.395088 13.7984 1.09835 14.5016C1.80161 15.2049 2.75544 15.6 3.75 15.6C4.74456 15.6 5.69839 15.2049 6.40165 14.5016C7.10491 13.7984 7.5 12.8446 7.5 11.85C7.5 10.8554 7.10491 9.90161 6.40165 9.19835C5.69839 8.49509 4.74456 8.1 3.75 8.1ZM11.1 6.6H14.25V5.25H11.85L10.395 2.7975C10.1775 2.4225 9.75 2.175 9.3 2.175C8.9475 2.175 8.625 2.3175 8.4 2.55L5.625 5.3175C5.3925 5.55 5.25 5.85 5.25 6.225C5.25 6.6975 5.4975 7.095 5.8875 7.3275L8.4 8.85V12.6H9.75V7.725L8.0625 6.4875L9.8025 4.725M14.25 14.475C13.5538 14.475 12.8861 14.1984 12.3938 13.7062C11.9016 13.2139 11.625 12.5462 11.625 11.85C11.625 11.1538 11.9016 10.4861 12.3938 9.99384C12.8861 9.50156 13.5538 9.225 14.25 9.225C14.9462 9.225 15.6139 9.50156 16.1062 9.99384C16.5984 10.4861 16.875 11.1538 16.875 11.85C16.875 12.5462 16.5984 13.2139 16.1062 13.7062C15.6139 14.1984 14.9462 14.475 14.25 14.475ZM14.25 8.1C13.2554 8.1 12.3016 8.49509 11.5983 9.19835C10.8951 9.90161 10.5 10.8554 10.5 11.85C10.5 12.8446 10.8951 13.7984 11.5983 14.5016C12.3016 15.2049 13.2554 15.6 14.25 15.6C14.7425 15.6 15.2301 15.503 15.6851 15.3145C16.14 15.1261 16.5534 14.8499 16.9017 14.5016C17.2499 14.1534 17.5261 13.74 17.7145 13.2851C17.903 12.8301 18 12.3425 18 11.85C18 11.3575 17.903 10.8699 17.7145 10.4149C17.5261 9.95997 17.2499 9.54657 16.9017 9.19835C16.5534 8.85013 16.14 8.57391 15.6851 8.38545C15.2301 8.197 14.7425 8.1 14.25 8.1ZM12 2.7C12.75 2.7 13.35 2.1 13.35 1.35C13.35 0.6 12.75 0 12 0C11.25 0 10.65 0.6 10.65 1.35C10.65 2.1 11.25 2.7 12 2.7Z" fill="#F8F8F8"/>
</svg>
