<svg width="24" height="25" viewBox="0 0 24 25" fill="none" xmlns="http://www.w3.org/2000/svg">
<path d="M24 18.6C24 19.3073 23.719 19.9855 23.219 20.4856C22.7189 20.9857 22.0406 21.2667 21.3333 21.2667H2.66667C1.95942 21.2667 1.28115 20.9857 0.781049 20.4856C0.280952 19.9855 0 19.3073 0 18.6V6.60002C0 5.89277 0.280952 5.2145 0.781049 4.7144C1.28115 4.2143 1.95942 3.93335 2.66667 3.93335H21.3333C22.0406 3.93335 22.7189 4.2143 23.219 4.7144C23.719 5.2145 24 5.89277 24 6.60002V18.6Z" fill="#009B3A"/>
<path d="M21.8187 12.6L12.0001 20.016L2.1814 12.6L12.0001 5.18335L21.8187 12.6Z" fill="#FEDF01"/>
<path d="M11.984 16.8548C14.3618 16.8548 16.2894 14.9272 16.2894 12.5495C16.2894 10.1717 14.3618 8.24414 11.984 8.24414C9.60627 8.24414 7.67871 10.1717 7.67871 12.5495C7.67871 14.9272 9.60627 16.8548 11.984 16.8548Z" fill="#002776"/>
<path d="M8.18457 10.5247C7.96096 10.9461 7.80953 11.402 7.73657 11.8734C10.3999 11.6801 14.0146 13.1341 15.5659 14.9367C15.8339 14.5341 16.0326 14.0834 16.1546 13.6007C14.2399 11.7287 10.8766 10.5141 8.18457 10.5247Z" fill="#CBE9D4"/>
<path d="M8 12.7554H8.66667V13.422H8V12.7554ZM8.66667 14.0887H9.33333V14.7554H8.66667V14.0887Z" fill="#88C9F9"/>
<path d="M10 12.7555H10.6667V13.4221H10V12.7555ZM11.3333 13.4221H12V14.0888H11.3333V13.4221ZM14 14.7555H14.6667V15.4221H14V14.7555ZM12 15.4221H12.6667V16.0888H12V15.4221ZM14 11.4221H14.6667V12.0888H14V11.4221Z" fill="#55ACEE"/>
<path d="M12.6667 14.0889H13.3334V14.7555H12.6667V14.0889Z" fill="#3B88C3"/>
</svg>
