<svg width="18" height="21" viewBox="0 0 18 21" fill="none" xmlns="http://www.w3.org/2000/svg">
<path d="M2 20.6001C1.45 20.6001 0.979 20.4044 0.587 20.0131C0.195667 19.6211 0 19.1501 0 18.6001V4.6001C0 4.0501 0.195667 3.57943 0.587 3.1881C0.979 2.7961 1.45 2.6001 2 2.6001H3V0.600098H5V2.6001H13V0.600098H15V2.6001H16C16.55 2.6001 17.021 2.7961 17.413 3.1881C17.8043 3.57943 18 4.0501 18 4.6001V18.6001C18 19.1501 17.8043 19.6211 17.413 20.0131C17.021 20.4044 16.55 20.6001 16 20.6001H2ZM2 18.6001H16V8.6001H2V18.6001ZM2 6.6001H16V4.6001H2V6.6001Z" fill="#F8F8F8"/>
</svg>
