<svg width="22" height="21" viewBox="0 0 22 21" fill="none" xmlns="http://www.w3.org/2000/svg">
<path d="M8.24995 20.9375L7.84995 17.7375C7.63329 17.6542 7.42928 17.5542 7.23795 17.4375C7.04595 17.3208 6.85828 17.1958 6.67495 17.0625L3.69995 18.3125L0.949951 13.5625L3.52495 11.6125C3.50828 11.4958 3.49995 11.3832 3.49995 11.2745V10.5995C3.49995 10.4915 3.50828 10.3792 3.52495 10.2625L0.949951 8.3125L3.69995 3.5625L6.67495 4.8125C6.85828 4.67917 7.04995 4.55417 7.24995 4.4375C7.44995 4.32083 7.64995 4.22083 7.84995 4.1375L8.24995 0.9375H13.75L14.15 4.1375C14.3666 4.22083 14.571 4.32083 14.763 4.4375C14.9543 4.55417 15.1416 4.67917 15.325 4.8125L18.2999 3.5625L21.0499 8.3125L18.475 10.2625C18.4916 10.3792 18.5 10.4915 18.5 10.5995V11.2745C18.5 11.3832 18.4833 11.4958 18.45 11.6125L21.025 13.5625L18.275 18.3125L15.325 17.0625C15.1416 17.1958 14.95 17.3208 14.75 17.4375C14.55 17.5542 14.35 17.6542 14.15 17.7375L13.75 20.9375H8.24995ZM11.05 14.4375C12.0166 14.4375 12.8416 14.0958 13.525 13.4125C14.2083 12.7292 14.55 11.9042 14.55 10.9375C14.55 9.97083 14.2083 9.14583 13.525 8.4625C12.8416 7.77917 12.0166 7.4375 11.05 7.4375C10.0666 7.4375 9.23728 7.77917 8.56195 8.4625C7.88729 9.14583 7.54995 9.97083 7.54995 10.9375C7.54995 11.9042 7.88729 12.7292 8.56195 13.4125C9.23728 14.0958 10.0666 14.4375 11.05 14.4375ZM11.05 12.4375C10.6333 12.4375 10.2793 12.2915 9.98795 11.9995C9.69595 11.7082 9.54995 11.3542 9.54995 10.9375C9.54995 10.5208 9.69595 10.1668 9.98795 9.8755C10.2793 9.5835 10.6333 9.4375 11.05 9.4375C11.4666 9.4375 11.821 9.5835 12.113 9.8755C12.4043 10.1668 12.55 10.5208 12.55 10.9375C12.55 11.3542 12.4043 11.7082 12.113 11.9995C11.821 12.2915 11.4666 12.4375 11.05 12.4375ZM9.99995 18.9375H11.975L12.325 16.2875C12.8416 16.1542 13.321 15.9582 13.763 15.6995C14.2043 15.4415 14.6083 15.1292 14.975 14.7625L17.45 15.7875L18.4249 14.0875L16.275 12.4625C16.3583 12.2292 16.4166 11.9832 16.45 11.7245C16.4833 11.4665 16.5 11.2042 16.5 10.9375C16.5 10.6708 16.4833 10.4082 16.45 10.1495C16.4166 9.8915 16.3583 9.64583 16.275 9.4125L18.4249 7.7875L17.45 6.0875L14.975 7.1375C14.6083 6.75417 14.2043 6.43317 13.763 6.1745C13.321 5.9165 12.8416 5.72083 12.325 5.5875L12 2.9375H10.025L9.67495 5.5875C9.15829 5.72083 8.67928 5.9165 8.23795 6.1745C7.79595 6.43317 7.39162 6.74583 7.02495 7.1125L4.54995 6.0875L3.57495 7.7875L5.72495 9.3875C5.64162 9.6375 5.58328 9.8875 5.54995 10.1375C5.51662 10.3875 5.49995 10.6542 5.49995 10.9375C5.49995 11.2042 5.51662 11.4625 5.54995 11.7125C5.58328 11.9625 5.64162 12.2125 5.72495 12.4625L3.57495 14.0875L4.54995 15.7875L7.02495 14.7375C7.39162 15.1208 7.79595 15.4415 8.23795 15.6995C8.67928 15.9582 9.15829 16.1542 9.67495 16.2875L9.99995 18.9375Z" fill="#F8F8F8"/>
</svg>
