<svg width="18" height="19" viewBox="0 0 18 19" fill="none" xmlns="http://www.w3.org/2000/svg">
<path d="M13.565 5.7998L10.5575 2.7998H7.25V4.2998H9.9425L11.4425 5.7998H5.375C3.5 5.7998 2 7.2998 2 9.1748C2 11.0498 3.5 12.5498 5.375 12.5498C7.04 12.5498 8.42 11.3348 8.69 9.75231L10.28 8.7998C10.25 8.9273 10.25 9.0473 10.25 9.1748C10.25 11.0498 11.75 12.5498 13.625 12.5498C15.5 12.5498 17 11.0498 17 9.1748C17 7.2998 15.5 5.7998 13.625 5.7998M7.13 9.7448C6.875 10.5023 6.185 11.0498 5.3525 11.0498C4.85522 11.0498 4.37831 10.8523 4.02667 10.5006C3.67504 10.149 3.4775 9.67209 3.4775 9.1748C3.4775 8.67752 3.67504 8.20061 4.02667 7.84898C4.37831 7.49735 4.85522 7.2998 5.3525 7.2998C6.1925 7.2998 6.875 7.8548 7.13 8.6123H5V9.7373L7.13 9.7448ZM13.6025 11.0498C13.1052 11.0498 12.6283 10.8523 12.2767 10.5006C11.925 10.149 11.7275 9.67209 11.7275 9.1748C11.7275 8.67752 11.925 8.20061 12.2767 7.84898C12.6283 7.49735 13.1052 7.2998 13.6025 7.2998C14.0998 7.2998 14.5767 7.49735 14.9283 7.84898C15.28 8.20061 15.4775 8.67752 15.4775 9.1748C15.4775 9.67209 15.28 10.149 14.9283 10.5006C14.5767 10.8523 14.0998 11.0498 13.6025 11.0498ZM8.75 14.7998H5.75L10.25 17.0498V15.5498H13.25L8.75 13.2998V14.7998Z" fill="#F8F8F8"/>
</svg>
