<svg width="24" height="25" viewBox="0 0 24 25" fill="none" xmlns="http://www.w3.org/2000/svg">
<g clip-path="url(#clip0_85_490)">
<path d="M2.66667 3.93335C1.95942 3.93335 1.28115 4.2143 0.781049 4.7144C0.280952 5.2145 0 5.89277 0 6.60002L0 18.6C0 19.3073 0.280952 19.9855 0.781049 20.4856C1.28115 20.9857 1.95942 21.2667 2.66667 21.2667H7.33333V3.93335H2.66667Z" fill="#006847"/>
<path d="M21.3332 3.93335H16.6665V21.2667H21.3332C22.0404 21.2667 22.7187 20.9857 23.2188 20.4856C23.7189 19.9855 23.9998 19.3073 23.9998 18.6V6.60002C23.9998 5.89277 23.7189 5.2145 23.2188 4.7144C22.7187 4.2143 22.0404 3.93335 21.3332 3.93335Z" fill="#CE1126"/>
<path d="M7.3335 3.93335H16.6668V21.2667H7.3335V3.93335Z" fill="#EEEEEE"/>
<path d="M15.3333 12.6001C15.3333 13.4842 14.9821 14.332 14.357 14.9571C13.7319 15.5822 12.8841 15.9334 12 15.9334C11.1159 15.9334 10.2681 15.5822 9.64298 14.9571C9.01786 14.332 8.66667 13.4842 8.66667 12.6001H8C8 13.661 8.42143 14.6784 9.17157 15.4285C9.92172 16.1787 10.9391 16.6001 12 16.6001C13.0609 16.6001 14.0783 16.1787 14.8284 15.4285C15.5786 14.6784 16 13.661 16 12.6001H15.3333Z" fill="#A6D388"/>
<path d="M9.02887 14.1128C9.00911 14.0737 8.98178 14.0388 8.94848 14.0103C8.91517 13.9818 8.87655 13.9602 8.83483 13.9466C8.79311 13.9331 8.74914 13.928 8.70543 13.9316C8.66173 13.9352 8.61917 13.9474 8.58021 13.9675C8.54113 13.9873 8.50635 14.0147 8.47786 14.048C8.44937 14.0813 8.42773 14.1199 8.41417 14.1615C8.40061 14.2032 8.3954 14.2472 8.39883 14.2908C8.40227 14.3345 8.41429 14.3771 8.43421 14.4162C8.49421 14.5342 8.56021 14.6495 8.63154 14.7602L8.63421 14.7648L8.63954 14.7728L8.64154 14.7775L8.64221 14.7788L8.64487 14.7822L8.64687 14.7862V14.7875L8.64887 14.7908L8.64954 14.7922L8.65154 14.7955L8.65221 14.7968L8.65421 14.7995L8.65554 14.8015L8.65687 14.8035L8.65754 14.8055L8.65954 14.8088L8.66021 14.8095L8.66154 14.8115L8.66354 14.8155L8.66421 14.8168L8.66621 14.8202L8.66687 14.8215L8.67154 14.8282V14.8288L8.67487 14.8335C8.70954 14.8848 8.74487 14.9348 8.78221 14.9848C8.80824 15.0198 8.84093 15.0493 8.8784 15.0717C8.91587 15.094 8.95738 15.1087 9.00055 15.115C9.04373 15.1213 9.08771 15.1189 9.12998 15.1081C9.17225 15.0974 9.21197 15.0783 9.24687 15.0522C9.28202 15.0261 9.31169 14.9934 9.33417 14.9558C9.35665 14.9183 9.3715 14.8767 9.37788 14.8334C9.38426 14.7901 9.38204 14.746 9.37134 14.7036C9.36064 14.6611 9.34168 14.6212 9.31554 14.5862C9.2091 14.4352 9.11331 14.2771 9.02887 14.1128ZM8.69754 13.0582C8.67269 12.8741 8.66244 12.6885 8.66687 12.5028C8.66938 12.4145 8.63674 12.3288 8.57612 12.2646C8.51549 12.2003 8.43184 12.1628 8.34354 12.1602L8.31954 12.1608C8.2354 12.1645 8.15577 12.1999 8.09666 12.2599C8.03754 12.3198 8.00332 12.4 8.00087 12.4842C7.99932 12.5533 7.99909 12.6224 8.00021 12.6915V12.7515L8.00087 12.7548V12.7735L8.00154 12.7755L8.00087 12.7768V12.7788L8.00154 12.7802V12.7995L8.00221 12.8015V12.8088L8.00287 12.8215L8.00354 12.8275V12.8348C8.00954 12.9415 8.02021 13.0475 8.03421 13.1528C8.04661 13.2399 8.09296 13.3186 8.16315 13.3717C8.23334 13.4248 8.32167 13.4479 8.40887 13.4362C8.4527 13.4304 8.49496 13.4161 8.53322 13.3939C8.57148 13.3718 8.60499 13.3423 8.63182 13.3072C8.65864 13.2721 8.67826 13.232 8.68954 13.1892C8.70082 13.1465 8.70354 13.1019 8.69754 13.0582ZM12.2269 15.9248L12.2229 15.9255L12.1402 15.9308C11.9823 15.9372 11.8241 15.9325 11.6669 15.9168C11.5789 15.908 11.491 15.9344 11.4226 15.9904C11.3541 16.0463 11.3107 16.1272 11.3019 16.2152C11.293 16.3031 11.3195 16.391 11.3754 16.4594C11.4314 16.5279 11.5122 16.5713 11.6002 16.5802L11.6835 16.5875L11.6862 16.5882L11.6875 16.5875L11.6895 16.5882H11.6909L11.6949 16.5888H11.6989L11.7009 16.5895L11.7055 16.5888L11.7075 16.5895H11.7109L11.7149 16.5902L11.7182 16.5908H11.7269L11.7309 16.5915H11.7395C11.8409 16.5982 11.9429 16.6015 12.0455 16.5995H12.0715L12.0762 16.5988L12.0802 16.5995H12.0902L12.0935 16.5988H12.1062L12.1102 16.5982L12.1142 16.5988L12.1149 16.5982L12.1189 16.5988H12.1195L12.1229 16.5982H12.1282L12.1322 16.5975H12.1362L12.1369 16.5982L12.1409 16.5975H12.1455L12.1489 16.5968H12.1622L12.1655 16.5962H12.1682L12.1709 16.5955L12.1735 16.5962H12.1769L12.1795 16.5955H12.1829C12.2109 16.5948 12.2395 16.5922 12.2675 16.5908C12.3539 16.5838 12.434 16.5431 12.4905 16.4775C12.547 16.4118 12.5754 16.3266 12.5695 16.2402C12.5678 16.1969 12.5576 16.1545 12.5394 16.1152C12.5213 16.0759 12.4955 16.0406 12.4637 16.0113C12.4319 15.982 12.3945 15.9593 12.3539 15.9445C12.3133 15.9296 12.2701 15.9229 12.2269 15.9248ZM10.6009 15.6262C10.4327 15.5482 10.2713 15.4566 10.1182 15.3522C10.059 15.3113 9.98806 15.291 9.91621 15.2942C9.84639 15.2971 9.77927 15.3219 9.72433 15.3651C9.66939 15.4083 9.6294 15.4676 9.61002 15.5347C9.59064 15.6019 9.59284 15.6734 9.61632 15.7392C9.63981 15.805 9.68337 15.8618 9.74087 15.9015L9.74154 15.9022L9.74554 15.9042L9.74954 15.9082L9.75354 15.9108L9.75754 15.9142C9.93487 16.0348 10.1229 16.1408 10.3189 16.2315C10.3585 16.25 10.4014 16.2605 10.4451 16.2623C10.4888 16.2642 10.5325 16.2574 10.5735 16.2424C10.6146 16.2273 10.6523 16.2043 10.6845 16.1746C10.7166 16.145 10.7426 16.1092 10.7609 16.0695C10.7796 16.0299 10.7904 15.987 10.7925 15.9432C10.7946 15.8995 10.7881 15.8557 10.7732 15.8145C10.7583 15.7733 10.7354 15.7354 10.7059 15.7031C10.6763 15.6708 10.6406 15.6446 10.6009 15.6262ZM13.9542 15.3608C13.8953 15.3636 13.8383 15.382 13.7889 15.4142C13.633 15.5132 13.4693 15.5995 13.2995 15.6722C13.2262 15.7013 13.1656 15.7556 13.1287 15.8253C13.0917 15.895 13.0808 15.9756 13.0979 16.0526C13.115 16.1297 13.159 16.1981 13.222 16.2457C13.2849 16.2932 13.3628 16.3168 13.4415 16.3122C13.4811 16.3103 13.5201 16.3017 13.5569 16.2868L13.6462 16.2468H13.6475L13.6515 16.2442L13.6529 16.2435L13.6555 16.2422H13.6582L13.6609 16.2408L13.6622 16.2395L13.6662 16.2388L13.6675 16.2375L13.6695 16.2362L13.6729 16.2348L13.6749 16.2342L13.6782 16.2328L13.6795 16.2322L13.6829 16.2308L13.6842 16.2302C13.6862 16.2288 13.6862 16.2282 13.6875 16.2282L13.6889 16.2275L13.6929 16.2255H13.6942L13.6982 16.2235L13.7022 16.2215L13.7035 16.2208L13.7069 16.2188L13.7082 16.2182L13.7122 16.2162L13.7129 16.2155L13.7175 16.2148L13.7222 16.2122L13.7235 16.2115L13.7262 16.2095H13.7275L13.7315 16.2068L13.7369 16.2055L13.7409 16.2028L13.7462 16.2002L13.7469 16.1995L13.7562 16.1955L13.7609 16.1935L13.7702 16.1882L13.7755 16.1862L13.7795 16.1842L13.7895 16.1788L13.7935 16.1768L13.8089 16.1688L13.8135 16.1675L13.8229 16.1622L13.8275 16.1595H13.8282C13.8289 16.1588 13.8302 16.1582 13.8329 16.1582C13.8342 16.1562 13.8355 16.1555 13.8369 16.1548L13.8422 16.1522L13.8462 16.1502V16.1495L13.8555 16.1455L13.8609 16.1428L13.8615 16.1422L13.8649 16.1402L13.8702 16.1375L13.8742 16.1355H13.8755L13.8795 16.1328L13.8842 16.1302L13.8849 16.1295L13.8889 16.1275L13.8929 16.1255L13.8942 16.1248L13.8969 16.1228L13.8989 16.1222L13.9022 16.1202L13.9035 16.1195L13.9069 16.1175L13.9082 16.1168L13.9122 16.1155C13.9115 16.1148 13.9122 16.1148 13.9129 16.1148L13.9169 16.1128L13.9182 16.1122L13.9209 16.1102L13.9222 16.1095L13.9262 16.1075L13.9275 16.1068C13.9275 16.1055 13.9289 16.1055 13.9302 16.1048L13.9322 16.1042L13.9349 16.1028L13.9369 16.1015L13.9395 16.1002L13.9415 16.0988L13.9435 16.0975L13.9455 16.0955L13.9489 16.0948L13.9515 16.0942L13.9529 16.0928L13.9555 16.0915L13.9582 16.0895L13.9595 16.0888L13.9622 16.0875L13.9649 16.0855L13.9669 16.0842C13.9682 16.0848 13.9689 16.0842 13.9702 16.0835L13.9715 16.0822L13.9742 16.0808L13.9762 16.0795L13.9782 16.0782L13.9809 16.0768L13.9835 16.0748L13.9849 16.0742C13.9862 16.0735 13.9889 16.0735 13.9902 16.0722C13.9889 16.0715 13.9889 16.0722 13.9902 16.0722L13.9929 16.0702L13.9975 16.0668L13.9989 16.0662L14.0035 16.0642L14.0115 16.0595L14.0169 16.0562C14.021 16.0532 14.0255 16.0507 14.0302 16.0488C14.0722 16.0235 14.1162 15.9975 14.1575 15.9708C14.2319 15.9232 14.2844 15.848 14.3034 15.7618C14.3224 15.6755 14.3064 15.5853 14.2589 15.5108C14.2238 15.4633 14.1778 15.4248 14.1248 15.3987C14.0718 15.3726 14.0133 15.3596 13.9542 15.3608ZM15.6682 12.2822L15.6522 12.2828C15.5665 12.2864 15.4854 12.3229 15.426 12.3848C15.3665 12.4466 15.3331 12.529 15.3329 12.6148C15.3329 12.7995 15.3162 12.9862 15.2849 13.1675C15.27 13.2547 15.2904 13.3443 15.3416 13.4165C15.3928 13.4887 15.4706 13.5376 15.5579 13.5525C15.6451 13.5673 15.7347 13.5469 15.8069 13.4957C15.8791 13.4445 15.928 13.3667 15.9429 13.2795V13.2762L15.9435 13.2748L15.9442 13.2735L15.9435 13.2722L15.9442 13.2708V13.2695L15.9449 13.2682V13.2662L15.9455 13.2648V13.2588C15.9469 13.2582 15.9469 13.2568 15.9469 13.2562V13.2522C15.9612 13.1657 15.9727 13.0787 15.9815 12.9915L15.9809 12.9908L15.9815 12.9888L15.9822 12.9855V12.9782L15.9835 12.9762L15.9829 12.9735V12.9722L15.9835 12.9702V12.9675L15.9849 12.9668L15.9835 12.9648V12.9622C15.9849 12.9615 15.9849 12.9608 15.9849 12.9602V12.9475L15.9862 12.9455C15.9953 12.8357 15.9999 12.725 16.0002 12.6148C16 12.5268 15.965 12.4424 15.9028 12.38C15.8406 12.3177 15.7563 12.2825 15.6682 12.2822ZM15.3729 14.0795C15.3345 14.0583 15.2924 14.0448 15.2488 14.0399C15.2053 14.035 15.1612 14.0387 15.1191 14.0508C15.077 14.063 15.0377 14.0833 15.0035 14.1106C14.9692 14.138 14.9407 14.1718 14.9195 14.2102C14.8301 14.3725 14.7268 14.5268 14.6109 14.6715C14.5564 14.7408 14.5316 14.8288 14.5419 14.9163C14.5521 15.0038 14.5966 15.0837 14.6656 15.1385C14.7346 15.1933 14.8225 15.2185 14.91 15.2087C14.9976 15.1989 15.0777 15.1549 15.1329 15.0862C15.2102 14.9888 15.2842 14.8868 15.3529 14.7828C15.3542 14.7782 15.3575 14.7735 15.3602 14.7695L15.3609 14.7688L15.3635 14.7648L15.3662 14.7595C15.3675 14.7582 15.3689 14.7568 15.3689 14.7555L15.3695 14.7562L15.3722 14.7522V14.7515C15.3735 14.7503 15.3742 14.7486 15.3742 14.7468L15.3755 14.7462L15.3782 14.7422C15.3795 14.7415 15.3795 14.7395 15.3802 14.7382L15.3809 14.7375L15.3835 14.7335L15.3842 14.7322L15.3855 14.7288L15.3875 14.7275L15.3889 14.7242H15.3902L15.3915 14.7202L15.3922 14.7188L15.3949 14.7162L15.3955 14.7148C15.3962 14.7135 15.3962 14.7122 15.3975 14.7115L15.3982 14.7095L15.4009 14.7075C15.4009 14.7068 15.4009 14.7062 15.4022 14.7055V14.7028L15.4042 14.7015L15.4062 14.6982L15.4069 14.6968L15.4089 14.6928L15.4102 14.6915L15.4115 14.6888L15.4129 14.6868C15.4129 14.6862 15.4129 14.6855 15.4142 14.6848C15.4142 14.6842 15.4142 14.6835 15.4155 14.6828L15.4175 14.6795L15.4182 14.6775L15.4195 14.6755L15.4209 14.6735C15.4222 14.6728 15.4222 14.6722 15.4222 14.6715C15.4235 14.6708 15.4235 14.6702 15.4235 14.6688L15.4249 14.6668L15.4269 14.6642L15.4289 14.6615V14.6595L15.4302 14.6575L15.4322 14.6548L15.4342 14.6528V14.6508L15.4369 14.6475V14.6455C15.4382 14.6448 15.4389 14.6442 15.4389 14.6428L15.4402 14.6415L15.4415 14.6395L15.4435 14.6362L15.4449 14.6342V14.6328L15.4475 14.6295C15.4475 14.6288 15.4475 14.6282 15.4489 14.6275L15.4495 14.6255L15.4515 14.6228L15.4529 14.6202L15.4542 14.6182C15.4549 14.6175 15.4542 14.6162 15.4555 14.6155C15.4555 14.6148 15.4555 14.6142 15.4569 14.6142L15.4582 14.6108L15.4595 14.6095L15.4609 14.6055L15.4622 14.6048L15.4635 14.6022L15.4649 14.6008L15.4662 14.5975L15.4675 14.5962L15.4689 14.5922C15.4702 14.5915 15.4689 14.5908 15.4689 14.5908L15.4715 14.5875L15.4722 14.5862L15.4749 14.5828V14.5822L15.4769 14.5782L15.4782 14.5768L15.4795 14.5728L15.4829 14.5688L15.4849 14.5648V14.5642L15.4875 14.5595L15.4889 14.5588L15.5055 14.5275C15.5469 14.4504 15.5562 14.3601 15.5314 14.2762C15.5065 14.1923 15.4496 14.1216 15.3729 14.0795Z" fill="#5C913B"/>
<path d="M12 15.2667C13.1046 15.2667 14 14.9682 14 14.6C14 14.2318 13.1046 13.9333 12 13.9333C10.8954 13.9333 10 14.2318 10 14.6C10 14.9682 10.8954 15.2667 12 15.2667Z" fill="#55ACEE"/>
<path d="M12.3335 15.2667C12.8858 15.2667 13.3335 14.9682 13.3335 14.6C13.3335 14.2318 12.8858 13.9333 12.3335 13.9333C11.7812 13.9333 11.3335 14.2318 11.3335 14.6C11.3335 14.9682 11.7812 15.2667 12.3335 15.2667Z" fill="#FFCC4D"/>
<path d="M12.7446 14.7829C12.687 14.7824 12.6304 14.7671 12.5804 14.7384C12.5305 14.7097 12.4887 14.6686 12.4592 14.6191C12.4298 14.5696 12.4135 14.5133 12.4121 14.4557C12.4107 14.3981 12.4242 14.3411 12.4512 14.2902C12.5579 14.0942 12.6699 13.9162 12.7859 13.7602C12.6904 13.7642 12.5948 13.7662 12.4992 13.7662C12.3152 13.7662 12.1472 13.6162 12.1472 13.4322C12.1472 13.2482 12.2772 13.0989 12.4619 13.0989L12.5166 13.0995C12.7139 13.0995 12.9166 13.0875 13.0979 13.0709C13.1484 13.0658 13.1994 13.0725 13.2469 13.0906C13.2943 13.1086 13.3369 13.1375 13.3712 13.1749C13.3806 13.1675 13.3899 13.1602 13.3999 13.1542C13.4666 13.1102 13.5286 13.0749 13.5866 13.0469C13.6278 13.0151 13.676 12.9936 13.7272 12.9842L13.7512 12.9795C13.8766 12.9389 13.9646 12.9335 13.9999 12.9335C14.0521 12.9333 14.1036 12.9455 14.1503 12.9689C14.1969 12.9924 14.2374 13.0265 14.2683 13.0685C14.2993 13.1105 14.32 13.1593 14.3286 13.2108C14.3372 13.2622 14.3335 13.315 14.3179 13.3649C14.2632 13.5422 14.1412 13.5822 13.9272 13.6249C13.8713 13.6472 13.8181 13.6759 13.7686 13.7102C13.7083 13.7494 13.637 13.7683 13.5652 13.7643C13.4934 13.7602 13.4247 13.7333 13.3692 13.6875C13.4147 13.7461 13.4392 13.8183 13.439 13.8924C13.4387 13.9666 13.4137 14.0385 13.3679 14.0969C13.2546 14.2415 13.1432 14.4135 13.0372 14.6089C13.0087 14.6616 12.9664 14.7056 12.9149 14.7362C12.8634 14.7669 12.8045 14.783 12.7446 14.7829ZM11.7979 13.7235C11.7832 13.7236 11.7685 13.7227 11.7539 13.7209C11.5158 13.69 11.2804 13.6407 11.0499 13.5735C11.0079 13.5611 10.9688 13.5405 10.9348 13.5129C10.9008 13.4853 10.8725 13.4513 10.8516 13.4128C10.8308 13.3742 10.8177 13.332 10.8132 13.2884C10.8087 13.2449 10.8128 13.2008 10.8252 13.1589L10.8292 13.1455L10.8212 13.1609C10.7999 13.1991 10.7712 13.2327 10.7368 13.2599C10.7024 13.287 10.6629 13.3071 10.6208 13.319C10.5786 13.3309 10.5345 13.3343 10.491 13.3291C10.4475 13.324 10.4055 13.3103 10.3672 13.2889C10.1458 13.1661 9.94228 13.0133 9.76258 12.8349C9.70186 12.772 9.66826 12.6878 9.66902 12.6004C9.66978 12.513 9.70484 12.4294 9.76664 12.3676C9.82844 12.3058 9.91205 12.2707 9.99945 12.27C10.0868 12.2692 10.171 12.3028 10.2339 12.3635C10.3652 12.4949 10.5192 12.6102 10.6926 12.7069C10.7605 12.7449 10.813 12.8056 10.8408 12.8783C10.8687 12.951 10.8703 13.0311 10.8452 13.1049C10.8803 13.0347 10.9389 12.9791 11.0108 12.9479C11.0828 12.9167 11.1634 12.9118 11.2386 12.9342C11.4226 12.9889 11.6246 13.0309 11.8386 13.0595C11.9225 13.0702 11.9993 13.1124 12.0533 13.1776C12.1073 13.2428 12.1344 13.3261 12.1292 13.4106C12.1241 13.4951 12.0869 13.5744 12.0254 13.6325C11.9639 13.6906 11.8826 13.7232 11.7979 13.7235ZM10.1632 12.1642C9.87925 12.1642 9.51191 12.0542 9.28925 11.7915C8.94791 11.3889 8.74725 10.8722 8.77791 10.4762C8.78591 10.3702 8.68258 10.2849 8.58125 10.2582C8.52325 10.2429 8.42125 10.2335 8.37325 10.3369C8.35468 10.377 8.32093 10.4081 8.27943 10.4234C8.23792 10.4386 8.19205 10.4368 8.15191 10.4182C8.11178 10.3996 8.08066 10.3659 8.06541 10.3244C8.05016 10.2829 8.05202 10.237 8.07058 10.1969C8.17458 9.97086 8.40791 9.87019 8.66525 9.93553C8.90391 9.99753 9.13258 10.2122 9.10991 10.5022C9.08591 10.8102 9.26058 11.2415 9.54325 11.5755C9.69191 11.7515 9.95058 11.8229 10.1266 11.8295C10.2699 11.8369 10.3426 11.8042 10.3579 11.7902C10.3206 11.7015 9.82658 11.4415 9.61591 11.3309C9.43658 11.2369 9.38325 11.1075 9.36991 11.0162C9.32525 10.7129 9.63658 10.4055 9.93791 10.1095C10.0439 10.0049 10.1446 9.90619 10.1992 9.83353C10.2612 9.75153 10.2512 9.69686 10.2392 9.66286C10.1932 9.53819 9.99391 9.41486 9.75391 9.36153C9.53191 9.31219 9.38191 9.20486 9.30858 9.04219C9.21191 8.82819 9.26325 8.54819 9.46458 8.18553C9.47522 8.1664 9.48952 8.14955 9.50667 8.13595C9.52381 8.12235 9.54347 8.11225 9.56452 8.10625C9.58557 8.10024 9.60759 8.09844 9.62934 8.10095C9.65108 8.10346 9.67212 8.11022 9.69125 8.12086C9.71038 8.1315 9.72722 8.1458 9.74083 8.16295C9.75443 8.18009 9.76452 8.19975 9.77052 8.2208C9.77653 8.24185 9.77833 8.26387 9.77582 8.28562C9.77332 8.30736 9.76655 8.3284 9.75591 8.34753C9.56591 8.68886 9.58458 8.84353 9.61258 8.90553C9.64058 8.96686 9.71191 9.01019 9.82591 9.03553C10.1079 9.09819 10.4472 9.26553 10.5512 9.54686C10.6106 9.70753 10.5806 9.88086 10.4659 10.0335C10.3966 10.1262 10.2872 10.2335 10.1719 10.3475C9.99991 10.5169 9.67925 10.8322 9.69991 10.9682C9.70391 10.9962 9.74058 11.0209 9.77125 11.0362C10.2719 11.2989 10.6046 11.4889 10.6726 11.7215C10.6845 11.7612 10.6881 11.8029 10.6833 11.8441C10.6785 11.8852 10.6653 11.925 10.6446 11.9609C10.5799 12.0735 10.4452 12.1429 10.2546 12.1602C10.2259 12.1629 10.1946 12.1642 10.1632 12.1642Z" fill="#5C913B"/>
<path d="M12.9998 13.2667C13.1839 13.2667 13.3332 12.9682 13.3332 12.6C13.3332 12.2318 13.1839 11.9333 12.9998 11.9333C12.8157 11.9333 12.6665 12.2318 12.6665 12.6C12.6665 12.9682 12.8157 13.2667 12.9998 13.2667Z" fill="#FFCC4D"/>
<path d="M11.528 12.0587C11.528 12.2507 11.298 12.4061 11.014 12.4061C10.7307 12.4061 10.5 12.2507 10.5 12.0587C10.5 11.8667 10.73 11.7114 11.014 11.7114C11.2974 11.7114 11.528 11.8667 11.528 12.0587ZM10.7367 8.97408C10.77 9.11541 10.5854 9.28074 10.324 9.34274C10.0627 9.40474 9.82402 9.34008 9.79002 9.19874C9.75669 9.05674 9.94135 8.89141 10.202 8.82941C10.464 8.76808 10.7034 8.83208 10.7367 8.97408Z" fill="#FFCC4D"/>
<path d="M15.022 12.5701C15.082 12.6168 15.184 12.0841 15.1687 11.9181C15.1687 11.9068 15.1493 11.5541 15.224 11.3021C15.27 11.2168 15.2727 10.5801 15.202 10.4128C15.258 10.4081 15.3253 10.3901 15.3333 10.3221C15.0747 10.4175 15.014 9.77747 14.7653 9.40947C14.524 9.0408 14.2247 8.82614 13.912 8.60214C13.9381 8.5367 13.9745 8.47592 14.02 8.42214C13.6367 8.61414 13.0393 7.9188 12.1567 7.9708C11.9587 7.99014 11.8647 8.00214 11.814 8.12347C11.6493 8.1368 11.482 8.17414 11.482 8.3908C11.482 8.4428 11.5293 8.53747 11.6347 8.53814C11.7787 8.58014 11.896 8.54747 11.994 8.7488L12.02 8.9568C12.02 8.9568 11.8913 8.79214 11.8207 8.76614L11.864 8.67747C11.7973 8.6388 11.6793 8.67014 11.6793 8.67014C11.6793 8.67014 11.4227 8.55014 11.2167 8.58214L11.1767 8.41547C11.1407 8.51814 11.06 8.5128 11.0487 8.60947C11.026 8.54014 10.996 8.45414 10.9747 8.3848C10.902 8.48347 10.9233 8.59014 10.8973 8.6928C10.8693 8.7168 10.812 8.71747 10.7973 8.65147C10.79 8.57014 10.78 8.5628 10.78 8.46614C10.728 8.55747 10.6653 8.60214 10.6447 8.7588L10.5893 8.58547C10.5913 8.79014 10.4153 8.91214 10.2487 9.0568C10.2013 9.14347 10.256 9.14414 10.26 9.1888L10.348 9.2328L10.506 9.22147C10.532 9.25414 10.5107 9.2568 10.5793 9.27747C10.7633 9.3288 10.9927 9.10814 11.1727 9.45547C11.09 9.5248 11.0067 9.6868 11.0333 9.71747C11.0667 9.71747 10.9667 9.76414 11.1013 9.72147C10.9613 9.85747 10.8667 10.0368 10.8667 10.0475C10.8507 10.0861 10.9227 10.0421 10.908 10.1121L10.9413 10.1081C10.622 10.4535 10.9307 10.8248 10.8967 11.0241C10.95 11.1101 10.9567 11.0221 11.0233 11.0135C11.0793 11.2588 11.2407 11.4075 11.3393 11.6015L11.1313 11.6035C11.136 11.6955 11.2193 11.7828 11.2853 11.8635L11.146 11.9075C11.0564 11.9521 10.9766 12.0142 10.9113 12.0901C10.8653 12.2021 11.1333 12.2288 11.2627 12.2488L11.258 12.3841C11.46 12.4035 11.6933 12.3435 11.6933 12.3321L11.744 12.2928L11.858 12.3555C11.896 12.3555 11.9553 12.2035 11.928 12.0868C12.0013 12.1741 12.0707 12.3148 12.144 12.4028L12.2127 12.3935C12.2753 12.4928 12.3613 12.5915 12.424 12.6908L12.494 12.7175C12.5347 12.7035 12.5693 12.6988 12.5913 12.6188L12.6233 12.6748L12.734 12.5988L12.8113 12.5835L12.8693 12.6781C12.9033 12.6655 12.9367 12.5915 12.9387 12.5128C12.9733 12.5815 12.9827 12.5761 13.008 12.5941L13.0593 12.4861L13.336 12.7448L13.5453 12.7568C13.62 12.8075 13.8247 12.8395 13.8593 12.7575C14.0273 12.8295 14.2253 12.7481 14.2153 12.6681C14.37 12.7295 14.608 12.6881 14.608 12.6781C14.6367 12.6748 14.71 12.6028 14.6407 12.5488C14.1293 12.1928 13.3713 11.6035 13.0787 11.4615C13.0787 11.3561 12.9993 10.9768 12.914 10.8728L12.9833 10.7568C13.1827 10.9428 13.2547 10.9248 13.3607 10.9541C13.474 11.0441 13.5133 11.1808 13.6267 11.3055L13.728 11.3241C13.6454 11.1072 13.5198 10.9093 13.3587 10.7421C13.468 10.7968 13.6493 10.9428 13.7707 11.0488C13.8507 11.1828 13.874 11.2895 13.9473 11.4575C14.0007 11.4915 14.0553 11.6161 14.048 11.5128C14.0353 11.3188 13.8987 11.0115 13.8987 10.9895C14.116 11.1615 14.1133 11.4295 14.1793 11.5928C14.2347 11.6755 14.2627 11.7861 14.2867 11.7601L14.2227 11.2561L14.1853 11.0715C14.346 11.1641 14.4033 11.5175 14.4787 11.9415C14.4787 12.0088 14.506 12.0828 14.502 12.1261C14.5367 12.1688 14.576 12.2868 14.5753 12.2168C14.5753 12.2168 14.5753 11.5275 14.528 11.3695C14.516 11.2848 14.548 11.1475 14.548 11.1475C14.6067 11.4335 14.6693 11.7435 14.7287 12.0288V12.2388L14.8167 12.3275C14.8333 12.1541 14.8533 11.9821 14.8707 11.8101L14.8047 11.1935V11.0175C14.8033 10.9555 14.8613 10.9668 14.898 11.0375C14.9067 11.1888 14.9067 11.3068 14.9127 11.4575C14.9387 11.6295 14.9567 11.7555 14.9693 11.9748C14.9767 12.1521 14.9847 12.5775 15.022 12.5701Z" fill="#C1694F"/>
</g>
<defs>
<clipPath id="clip0_85_490">
<rect width="24" height="24" fill="white" transform="translate(0 0.600098)"/>
</clipPath>
</defs>
</svg>
