<svg width="25" height="24" viewBox="0 0 25 24" fill="none" xmlns="http://www.w3.org/2000/svg">
<path d="M11.05 18H13.45V13.2H18.25V10.8H13.45V6H11.05V10.8H6.25V13.2H11.05V18ZM12.25 24C10.59 24 9.03 23.6848 7.57 23.0544C6.11 22.4248 4.84 21.57 3.76 20.49C2.68 19.41 1.8252 18.14 1.1956 16.68C0.5652 15.22 0.25 13.66 0.25 12C0.25 10.34 0.5652 8.78 1.1956 7.32C1.8252 5.86 2.68 4.59 3.76 3.51C4.84 2.43 6.11 1.5748 7.57 0.9444C9.03 0.3148 10.59 0 12.25 0C13.91 0 15.47 0.3148 16.93 0.9444C18.39 1.5748 19.66 2.43 20.74 3.51C21.82 4.59 22.6748 5.86 23.3044 7.32C23.9348 8.78 24.25 10.34 24.25 12C24.25 13.66 23.9348 15.22 23.3044 16.68C22.6748 18.14 21.82 19.41 20.74 20.49C19.66 21.57 18.39 22.4248 16.93 23.0544C15.47 23.6848 13.91 24 12.25 24ZM12.25 21.6C14.93 21.6 17.2 20.67 19.06 18.81C20.92 16.95 21.85 14.68 21.85 12C21.85 9.32 20.92 7.05 19.06 5.19C17.2 3.33 14.93 2.4 12.25 2.4C9.57 2.4 7.3 3.33 5.44 5.19C3.58 7.05 2.65 9.32 2.65 12C2.65 14.68 3.58 16.95 5.44 18.81C7.3 20.67 9.57 21.6 12.25 21.6Z" fill="#D69A27"/>
</svg>
