<svg width="52" height="38" viewBox="0 0 52 38" fill="none" xmlns="http://www.w3.org/2000/svg">
<rect width="52" height="38" rx="10" fill="#2C2626" fill-opacity="0.72"/>
<path d="M37.217 19.6334C37.721 18.9869 38 18.1948 38 17.3706C38 16.063 37.247 14.8253 36.035 14.1351C35.723 13.9574 35.3677 13.8639 35.006 13.8642H27.812L27.992 10.2851C28.034 9.42011 27.719 8.59886 27.107 7.97272C26.8067 7.6641 26.4443 7.41855 26.0423 7.25125C25.6404 7.08395 25.2073 6.99844 24.77 7.00002C23.21 7.00002 21.83 8.01931 21.416 9.47836L18.839 18.5355H14.96C14.429 18.5355 14 18.952 14 19.4674V30.0681C14 30.5835 14.429 31 14.96 31H32.999C33.275 31 33.545 30.9476 33.794 30.8427C35.222 30.2515 36.143 28.8973 36.143 27.3946C36.143 27.0277 36.089 26.6665 35.981 26.3171C36.485 25.6706 36.764 24.8784 36.764 24.0542C36.764 23.6873 36.71 23.3262 36.602 22.9767C37.106 22.3302 37.385 21.5381 37.385 20.7139C37.379 20.3469 37.325 19.9829 37.217 19.6334ZM16.16 28.9032V20.6323H18.59V28.9032H16.16ZM35.252 18.6229L34.595 19.1762L35.012 19.9159C35.1494 20.1596 35.2206 20.4332 35.219 20.711C35.219 21.1915 35.003 21.6487 34.631 21.9632L33.974 22.5166L34.391 23.2563C34.5284 23.5 34.5996 23.7736 34.598 24.0513C34.598 24.5319 34.382 24.9891 34.01 25.3036L33.353 25.8569L33.77 26.5967C33.9074 26.8403 33.9786 27.1139 33.977 27.3917C33.977 28.0441 33.581 28.6323 32.969 28.9003H20.51V20.5391L23.495 10.0404C23.572 9.77133 23.7372 9.53393 23.9656 9.36419C24.1941 9.19445 24.4733 9.10162 24.761 9.09976C24.989 9.09976 25.214 9.16383 25.394 9.29489C25.691 9.51039 25.85 9.83657 25.832 10.1831L25.544 15.9611H34.976C35.51 16.2785 35.84 16.8144 35.84 17.3706C35.84 17.8511 35.624 18.3054 35.252 18.6229Z" fill="#F8F8F8"/>
</svg>
