<svg width="21" height="24" viewBox="0 0 21 24" fill="none" xmlns="http://www.w3.org/2000/svg">
<path d="M10.5 12C11.2219 12 11.8401 11.7648 12.3546 11.2944C12.8691 10.824 13.1259 10.2592 13.125 9.6C13.125 8.94 12.8677 8.3748 12.3532 7.9044C11.8387 7.434 11.221 7.1992 10.5 7.2C9.77812 7.2 9.15994 7.4352 8.64544 7.9056C8.13094 8.376 7.87413 8.9408 7.875 9.6C7.875 10.26 8.13225 10.8252 8.64675 11.2956C9.16125 11.766 9.779 12.0008 10.5 12ZM10.5 20.82C13.1687 18.58 15.1484 16.5448 16.4391 14.7144C17.7297 12.884 18.375 11.2592 18.375 9.84C18.375 7.66 17.6146 5.8752 16.0939 4.4856C14.5731 3.096 12.7085 2.4008 10.5 2.4C8.29062 2.4 6.42556 3.0952 4.90481 4.4856C3.38406 5.876 2.62413 7.6608 2.625 9.84C2.625 11.26 3.27031 12.8852 4.56094 14.7156C5.85156 16.546 7.83125 18.5808 10.5 20.82ZM10.5 24C6.97813 21.26 4.34787 18.7152 2.60925 16.3656C0.870625 14.016 0.000875 11.8408 0 9.84C0 6.84 1.05569 4.45 3.16706 2.67C5.27844 0.89 7.72275 0 10.5 0C13.2781 0 15.7229 0.89 17.8342 2.67C19.9456 4.45 21.0009 6.84 21 9.84C21 11.84 20.1302 14.0152 18.3907 16.3656C16.6512 18.716 14.021 21.2608 10.5 24Z" fill="#F8F8F8"/>
</svg>
