<svg width="18" height="19" viewBox="0 0 18 19" fill="none" xmlns="http://www.w3.org/2000/svg">
<path d="M12.6562 3.77491C12.4822 3.7742 12.3122 3.82809 12.1704 3.92899C12.0285 4.02989 11.9218 4.17273 11.8654 4.33741H9.5625V5.46241H11.9531L12.1292 6.02491H10.125C8.65688 6.02491 7.91887 6.81578 7.64662 7.14991H5.74819C5.11253 6.78156 4.39092 6.58753 3.65625 6.58741C2.44125 6.58741 1.44113 7.06216 1.44113 7.06216L1.93387 8.08141C1.93387 8.08141 2.73769 7.71241 3.65625 7.71241C4.11131 7.71241 4.53937 7.85078 4.85156 7.97622L4.35938 8.99491C4.04079 8.89423 3.70909 8.84116 3.375 8.83741C1.51369 8.83741 0 10.3511 0 12.2124C0 14.0737 1.51369 15.5874 3.375 15.5874C4.17203 15.5876 4.94331 15.3051 5.55162 14.7901C6.15994 14.2751 6.56584 13.5611 6.69713 12.7749H8.64844C9.07481 12.7749 9.47925 12.5268 9.66825 12.1421H9.65025L10.2656 10.8939C11.2016 10.4636 11.9644 9.7166 12.4982 9.01347C12.645 8.81997 12.7704 8.64222 12.8846 8.46785L14.0799 12.3705L15.1701 12.0543L14.5372 9.97985C14.5676 9.9776 14.5941 9.96241 14.625 9.96241C15.8664 9.96241 16.875 10.971 16.875 12.2124C16.875 13.4538 15.8664 14.4624 14.625 14.4624C14.1855 14.4618 13.7558 14.3326 13.3889 14.0907C13.0219 13.8488 12.7338 13.5048 12.56 13.1011C12.3863 12.6974 12.3344 12.2517 12.4109 11.8189C12.4873 11.3862 12.6888 10.9852 12.9904 10.6655L12.6388 9.48766C12.2093 9.8006 11.8597 10.2104 11.6184 10.6839C11.3771 11.1573 11.2509 11.681 11.25 12.2124C11.25 14.0737 12.7637 15.5874 14.625 15.5874C16.4863 15.5874 18 14.0737 18 12.2124C18 10.3511 16.4863 8.83741 14.625 8.83741C14.4779 8.83897 14.3311 8.85081 14.1857 8.87285L13.1484 5.46241H14.0625V3.77491H12.6562ZM10.125 7.14991H12.375C12.1466 7.5611 11.8881 7.9548 11.6016 8.32778C11.0784 9.01347 10.3511 9.74247 9.65025 9.99785L9.42188 10.0682L9.33412 10.2791L8.64844 11.6499H3.375V12.7749H5.53725C5.28637 13.7441 4.42069 14.4624 3.375 14.4624C2.13356 14.4624 1.125 13.4538 1.125 12.2124C1.125 10.971 2.13356 9.96241 3.375 9.96241C4.20356 9.96241 4.91737 10.4175 5.30887 11.0874H6.5565C6.32744 10.4464 5.91098 9.88903 5.36119 9.48766L5.97656 8.27491H8.17369L8.34975 8.02853C8.34975 8.02853 8.89481 7.14991 10.125 7.14991Z" fill="#F8F8F8"/>
</svg>
