<svg width="36" height="45" viewBox="0 0 36 45" fill="none" xmlns="http://www.w3.org/2000/svg">
<path d="M30 31.878C28.48 31.878 27.12 32.54 26.08 33.5772L11.82 24.4196C11.92 23.912 12 23.4045 12 22.8749C12 22.3453 11.92 21.8378 11.82 21.3303L25.92 12.261C27 13.3643 28.42 14.0483 30 14.0483C33.32 14.0483 36 11.0914 36 7.4284C36 3.76536 33.32 0.808456 30 0.808456C26.68 0.808456 24 3.76536 24 7.4284C24 7.95799 24.08 8.46552 24.18 8.97305L10.08 18.0424C9 16.939 7.58 16.255 6 16.255C2.68 16.255 0 19.2119 0 22.8749C0 26.538 2.68 29.4949 6 29.4949C7.58 29.4949 9 28.8108 10.08 27.7075L24.32 36.8871C24.22 37.3505 24.16 37.836 24.16 38.3214C24.16 41.8741 26.78 44.7649 30 44.7649C33.22 44.7649 35.84 41.8741 35.84 38.3214C35.84 34.7687 33.22 31.878 30 31.878ZM30 5.22175C31.1 5.22175 32 6.21474 32 7.4284C32 8.64205 31.1 9.63504 30 9.63504C28.9 9.63504 28 8.64205 28 7.4284C28 6.21474 28.9 5.22175 30 5.22175ZM6 25.0816C4.9 25.0816 4 24.0886 4 22.8749C4 21.6613 4.9 20.6683 6 20.6683C7.1 20.6683 8 21.6613 8 22.8749C8 24.0886 7.1 25.0816 6 25.0816ZM30 40.5722C28.9 40.5722 28 39.5792 28 38.3656C28 37.1519 28.9 36.1589 30 36.1589C31.1 36.1589 32 37.1519 32 38.3656C32 39.5792 31.1 40.5722 30 40.5722Z" fill="#F8F8F8"/>
</svg>
